<svg xmlns="http://www.w3.org/2000/svg" xmlns:xlink="http://www.w3.org/1999/xlink" width="500" zoomAndPan="magnify" viewBox="0 0 375 149.999998" height="200" preserveAspectRatio="xMidYMid meet" version="1.0"><defs><g/><clipPath id="fd5bed73d0"><path d="M 60.578125 98.035156 L 153.46875 98.035156 L 153.46875 108.367188 L 60.578125 108.367188 Z M 60.578125 98.035156 " clip-rule="nonzero"/></clipPath><clipPath id="2607c3f120"><path d="M 227.339844 39.328125 L 320.234375 39.328125 L 320.234375 49.65625 L 227.339844 49.65625 Z M 227.339844 39.328125 " clip-rule="nonzero"/></clipPath></defs><rect x="-37.5" width="450" fill="#ffffff" y="-15" height="179.999997" fill-opacity="1"/><rect x="-37.5" width="450" fill="#000000" y="-15" height="179.999997" fill-opacity="1"/><g clip-path="url(#fd5bed73d0)"><path fill="#ffffff" d="M 60.578125 98.035156 L 153.464844 98.035156 L 153.464844 108.367188 L 60.578125 108.367188 Z M 60.578125 98.035156 " fill-opacity="1" fill-rule="nonzero"/></g><g clip-path="url(#2607c3f120)"><path fill="#ffffff" d="M 227.339844 39.328125 L 320.230469 39.328125 L 320.230469 49.65625 L 227.339844 49.65625 Z M 227.339844 39.328125 " fill-opacity="1" fill-rule="nonzero"/></g><g fill="#ffffff" fill-opacity="1"><g transform="translate(55.795154, 79.588843)"><g><path d="M 5.03125 0 L 5.03125 -41.984375 L 21.65625 -41.984375 C 26.09375 -41.984375 29.96875 -41.101562 33.28125 -39.34375 C 36.601562 -37.582031 39.179688 -35.125 41.015625 -31.96875 C 42.859375 -28.8125 43.78125 -25.15625 43.78125 -21 C 43.78125 -16.800781 42.859375 -13.128906 41.015625 -9.984375 C 39.179688 -6.847656 36.601562 -4.398438 33.28125 -2.640625 C 29.96875 -0.878906 26.09375 0 21.65625 0 Z M 14.578125 -8.75 L 21.46875 -8.75 C 23.945312 -8.75 26.125 -9.257812 28 -10.28125 C 29.882812 -11.300781 31.359375 -12.726562 32.421875 -14.5625 C 33.484375 -16.40625 34.015625 -18.550781 34.015625 -21 C 34.015625 -23.476562 33.484375 -25.625 32.421875 -27.4375 C 31.359375 -29.257812 29.878906 -30.679688 27.984375 -31.703125 C 26.085938 -32.722656 23.878906 -33.234375 21.359375 -33.234375 L 14.578125 -33.234375 Z M 14.578125 -8.75 "/></g></g></g><g fill="#ffffff" fill-opacity="1"><g transform="translate(114.522054, 79.588843)"><g><path d="M 5.03125 0 L 5.03125 -41.984375 L 32.625 -41.984375 L 32.625 -33.953125 L 14.515625 -33.953125 L 14.515625 -25.25 L 31.015625 -25.25 L 31.015625 -17.28125 L 14.515625 -17.28125 L 14.515625 -8.09375 L 33.296875 -8.09375 L 33.296875 0 Z M 5.03125 0 "/></g></g></g><g fill="#ffffff" fill-opacity="1"><g transform="translate(163.291373, 79.588843)"><g><path d="M 19.671875 0.84375 C 16.148438 0.84375 13.117188 0.265625 10.578125 -0.890625 C 8.046875 -2.054688 6.085938 -3.707031 4.703125 -5.84375 C 3.328125 -7.988281 2.640625 -10.5 2.640625 -13.375 L 12 -13.375 C 12 -11.375 12.6875 -9.8125 14.0625 -8.6875 C 15.445312 -7.570312 17.296875 -7.015625 19.609375 -7.015625 C 21.609375 -7.015625 23.1875 -7.40625 24.34375 -8.1875 C 25.507812 -8.96875 26.09375 -10.054688 26.09375 -11.453125 C 26.09375 -12.929688 25.390625 -14.128906 23.984375 -15.046875 C 22.585938 -15.972656 20.410156 -16.753906 17.453125 -17.390625 C 12.535156 -18.429688 8.894531 -20.007812 6.53125 -22.125 C 4.175781 -24.25 3 -27.007812 3 -30.40625 C 3 -34.25 4.394531 -37.28125 7.1875 -39.5 C 9.988281 -41.71875 13.8125 -42.828125 18.65625 -42.828125 C 21.976562 -42.828125 24.859375 -42.253906 27.296875 -41.109375 C 29.734375 -39.972656 31.617188 -38.375 32.953125 -36.3125 C 34.296875 -34.257812 34.96875 -31.8125 34.96875 -28.96875 L 25.796875 -28.96875 C 25.796875 -30.851562 25.175781 -32.332031 23.9375 -33.40625 C 22.695312 -34.488281 20.976562 -35.03125 18.78125 -35.03125 C 16.78125 -35.03125 15.195312 -34.640625 14.03125 -33.859375 C 12.875 -33.078125 12.296875 -31.988281 12.296875 -30.59375 C 12.296875 -29.3125 12.9375 -28.226562 14.21875 -27.34375 C 15.5 -26.46875 17.738281 -25.648438 20.9375 -24.890625 C 26.175781 -23.648438 29.953125 -21.988281 32.265625 -19.90625 C 34.585938 -17.832031 35.75 -15.132812 35.75 -11.8125 C 35.75 -7.851562 34.316406 -4.753906 31.453125 -2.515625 C 28.597656 -0.273438 24.671875 0.84375 19.671875 0.84375 Z M 19.671875 0.84375 "/></g></g></g><g fill="#ffffff" fill-opacity="1"><g transform="translate(200.668028, 108.093193)"><g><path d="M 5.03125 0 L 5.03125 -41.984375 L 14.578125 -41.984375 L 14.578125 0 Z M 5.03125 0 "/></g></g></g><g fill="#ffffff" fill-opacity="1"><g transform="translate(232.70143, 108.093193)"><g><path d="M 5.03125 0 L 5.03125 -41.984375 L 22.96875 -41.984375 C 26.164062 -41.984375 28.941406 -41.40625 31.296875 -40.25 C 33.660156 -39.09375 35.484375 -37.429688 36.765625 -35.265625 C 38.046875 -33.109375 38.6875 -30.53125 38.6875 -27.53125 C 38.6875 -24.445312 37.984375 -21.796875 36.578125 -19.578125 C 35.179688 -17.359375 33.226562 -15.691406 30.71875 -14.578125 L 39.40625 0 L 28.375 0 L 20.875 -13.078125 L 14.578125 -13.078125 L 14.578125 0 Z M 14.453125 -21.109375 L 21.71875 -21.109375 C 24.070312 -21.109375 25.878906 -21.65625 27.140625 -22.75 C 28.398438 -23.851562 29.03125 -25.425781 29.03125 -27.46875 C 29.03125 -29.507812 28.398438 -31.078125 27.140625 -32.171875 C 25.878906 -33.273438 24.070312 -33.828125 21.71875 -33.828125 L 14.453125 -33.828125 Z M 14.453125 -21.109375 "/></g></g></g><g fill="#ffffff" fill-opacity="1"><g transform="translate(287.349318, 108.093193)"><g><path d="M 5.03125 0 L 5.03125 -41.984375 L 32.625 -41.984375 L 32.625 -33.953125 L 14.515625 -33.953125 L 14.515625 -25.25 L 31.015625 -25.25 L 31.015625 -17.28125 L 14.515625 -17.28125 L 14.515625 -8.09375 L 33.296875 -8.09375 L 33.296875 0 Z M 5.03125 0 "/></g></g></g></svg>